<svg xmlns="http://www.w3.org/2000/svg" xmlns:xlink="http://www.w3.org/1999/xlink" width="1200" zoomAndPan="magnify" viewBox="0 0 900 899.99999" height="1200" preserveAspectRatio="xMidYMid meet" version="1.0"><defs><clipPath id="ef87625fc3"><path d="M 450 0 C 201.472656 0 0 201.472656 0 450 C 0 698.527344 201.472656 900 450 900 C 698.527344 900 900 698.527344 900 450 C 900 201.472656 698.527344 0 450 0 " clip-rule="nonzero"/></clipPath><clipPath id="6fe2dc653c"><path d="M 195.394531 89.941406 L 253.113281 89.941406 L 253.113281 567 L 195.394531 567 Z M 195.394531 89.941406 " clip-rule="nonzero"/></clipPath><clipPath id="89c75feaae"><path d="M 195.390625 538.691406 L 486.464844 538.691406 L 486.464844 596.410156 L 195.390625 596.410156 Z M 195.390625 538.691406 " clip-rule="nonzero"/></clipPath><clipPath id="27784f0964"><path d="M 195.394531 314.066406 L 440.585938 314.066406 L 440.585938 371.785156 L 195.394531 371.785156 Z M 195.394531 314.066406 " clip-rule="nonzero"/></clipPath><clipPath id="60ebee0166"><path d="M 413.53125 342.933594 L 471.25 342.933594 L 471.25 779.164062 L 413.53125 779.164062 Z M 413.53125 342.933594 " clip-rule="nonzero"/></clipPath><clipPath id="7a4f95dd23"><path d="M 413.53125 313.851562 L 671.480469 313.851562 L 671.480469 371.570312 L 413.53125 371.570312 Z M 413.53125 313.851562 " clip-rule="nonzero"/></clipPath><clipPath id="48662fe777"><path d="M 413.527344 538.691406 L 704.601562 538.691406 L 704.601562 596.410156 L 413.527344 596.410156 Z M 413.527344 538.691406 " clip-rule="nonzero"/></clipPath><clipPath id="9211b07c1f"><path d="M 413.53125 753.328125 L 671.480469 753.328125 L 671.480469 811.046875 L 413.53125 811.046875 Z M 413.53125 753.328125 " clip-rule="nonzero"/></clipPath><clipPath id="f48fe50329"><path d="M 638 314 L 705 314 L 705 372 L 638 372 Z M 638 314 " clip-rule="nonzero"/></clipPath><clipPath id="4a37034a4f"><path d="M 621.707031 342.726562 L 655.015625 285.460938 L 704.609375 314.308594 L 671.296875 371.574219 Z M 621.707031 342.726562 " clip-rule="nonzero"/></clipPath><clipPath id="f9fe607502"><path d="M 671.296875 371.574219 L 638.363281 314.09375 L 704.609375 314.308594 Z M 671.296875 371.574219 " clip-rule="nonzero"/></clipPath><clipPath id="ee58fbc910"><path d="M 638.355469 753.683594 L 704.605469 753.683594 L 704.605469 811.054688 L 638.355469 811.054688 Z M 638.355469 753.683594 " clip-rule="nonzero"/></clipPath><clipPath id="4490ce662b"><path d="M 638.355469 811.054688 L 671.480469 753.683594 L 704.605469 811.054688 Z M 638.355469 811.054688 " clip-rule="nonzero"/></clipPath><clipPath id="042f1ad5da"><path d="M 195.394531 88.832031 L 453.34375 88.832031 L 453.34375 146.550781 L 195.394531 146.550781 Z M 195.394531 88.832031 " clip-rule="nonzero"/></clipPath><clipPath id="d8ae26fc65"><path d="M 420 89 L 487 89 L 487 147 L 420 147 Z M 420 89 " clip-rule="nonzero"/></clipPath><clipPath id="c135e2e7c4"><path d="M 403.566406 117.707031 L 436.878906 60.441406 L 486.472656 89.289062 L 453.160156 146.554688 Z M 403.566406 117.707031 " clip-rule="nonzero"/></clipPath><clipPath id="4d8bd297d9"><path d="M 453.160156 146.554688 L 420.222656 89.074219 L 486.472656 89.289062 Z M 453.160156 146.554688 " clip-rule="nonzero"/></clipPath></defs><g clip-path="url(#ef87625fc3)"><rect x="-90" width="1080" fill="#6371c7" y="-89.999999" height="1079.999988" fill-opacity="1"/></g><g clip-path="url(#6fe2dc653c)"><path fill="#ffffff" d="M 195.394531 89.941406 L 253.113281 89.941406 L 253.113281 566.121094 L 195.394531 566.121094 Z M 195.394531 89.941406 " fill-opacity="1" fill-rule="nonzero"/></g><g clip-path="url(#89c75feaae)"><path fill="#ffffff" d="M 195.390625 596.410156 L 195.390625 538.691406 L 488.796875 538.691406 L 488.796875 596.410156 Z M 195.390625 596.410156 " fill-opacity="1" fill-rule="nonzero"/></g><g clip-path="url(#27784f0964)"><path fill="#ffffff" d="M 195.394531 371.785156 L 195.394531 314.066406 L 440.699219 314.066406 L 440.699219 371.785156 Z M 195.394531 371.785156 " fill-opacity="1" fill-rule="nonzero"/></g><g clip-path="url(#60ebee0166)"><path fill="#202752" d="M 413.53125 342.933594 L 471.25 342.933594 L 471.25 780.636719 L 413.53125 780.636719 Z M 413.53125 342.933594 " fill-opacity="1" fill-rule="nonzero"/></g><g clip-path="url(#7a4f95dd23)"><path fill="#202752" d="M 413.53125 371.570312 L 413.53125 313.851562 L 673.269531 313.851562 L 673.269531 371.570312 Z M 413.53125 371.570312 " fill-opacity="1" fill-rule="nonzero"/></g><g clip-path="url(#48662fe777)"><path fill="#202752" d="M 413.527344 596.410156 L 413.527344 538.691406 L 706.933594 538.691406 L 706.933594 596.410156 Z M 413.527344 596.410156 " fill-opacity="1" fill-rule="nonzero"/></g><g clip-path="url(#9211b07c1f)"><path fill="#202752" d="M 413.53125 811.046875 L 413.53125 753.328125 L 673.269531 753.328125 L 673.269531 811.046875 Z M 413.53125 811.046875 " fill-opacity="1" fill-rule="nonzero"/></g><g clip-path="url(#f48fe50329)"><g clip-path="url(#4a37034a4f)"><g clip-path="url(#f9fe607502)"><path fill="#202752" d="M 621.707031 342.726562 L 655.015625 285.460938 L 704.609375 314.308594 L 671.296875 371.574219 Z M 621.707031 342.726562 " fill-opacity="1" fill-rule="nonzero"/></g></g></g><g clip-path="url(#ee58fbc910)"><g clip-path="url(#4490ce662b)"><path fill="#202752" d="M 638.355469 753.683594 L 704.605469 753.683594 L 704.605469 811.054688 L 638.355469 811.054688 Z M 638.355469 753.683594 " fill-opacity="1" fill-rule="nonzero"/></g></g><g clip-path="url(#042f1ad5da)"><path fill="#ffffff" d="M 195.394531 146.550781 L 195.394531 88.832031 L 455.128906 88.832031 L 455.128906 146.550781 Z M 195.394531 146.550781 " fill-opacity="1" fill-rule="nonzero"/></g><g clip-path="url(#d8ae26fc65)"><g clip-path="url(#c135e2e7c4)"><g clip-path="url(#4d8bd297d9)"><path fill="#ffffff" d="M 403.566406 117.707031 L 436.878906 60.441406 L 486.472656 89.289062 L 453.160156 146.554688 Z M 403.566406 117.707031 " fill-opacity="1" fill-rule="nonzero"/></g></g></g></svg>